<?xml version="1.0" encoding="utf-8"?>
<!-- Generator: Adobe Illustrator 16.0.0, SVG Export Plug-In . SVG Version: 6.00 Build 0)  -->
<!DOCTYPE svg PUBLIC "-//W3C//DTD SVG 1.1//EN" "http://www.w3.org/Graphics/SVG/1.1/DTD/svg11.dtd">
<svg version="1.1" id="Capa_1" xmlns="http://www.w3.org/2000/svg" xmlns:xlink="http://www.w3.org/1999/xlink" x="0px" y="0px"
	 width="841.89px" height="595.28px" viewBox="0 0 841.89 595.28" enable-background="new 0 0 841.89 595.28" xml:space="preserve">
<g>
	<g>
		<g>
			<path d="M404.99,267.47h50.782v5.851l-34.263,48.419h34.263v11.799h-51.629v-7.174l33.507-47.193h-32.66V267.47z"/>
			<path d="M521.555,325.232c-6.798,6.701-15.574,9.818-25.108,9.818c-24.539,0-34.924-16.896-35.018-34.075
				c-0.092-17.272,11.14-34.829,35.018-34.829c8.969,0,17.464,3.398,24.258,10.099l-8.305,8.023
				c-4.343-4.248-10.195-6.229-15.953-6.229c-15.95,0-22.841,11.892-22.747,22.935c0.096,10.949,6.419,22.37,22.747,22.37
				c5.758,0,12.271-2.361,16.613-6.701L521.555,325.232z"/>
			<path d="M585.165,285.685l-21.521,28.694h-2.455l-21.048-28.789v48.044h-12.458v-66.072h14.346l20.671,28.411l20.671-28.411
				h14.253v66.072h-12.458V285.685z"/>
			<path d="M667.46,299.938c0.284,16.707-9.909,33.602-33.033,33.602c-8.118,0-17.839,0-25.957,0V267.47c8.118,0,17.839,0,25.957,0
				C657.08,267.47,667.179,283.609,667.46,299.938z M620.834,321.551h13.593c15.009,0,20.952-10.947,20.671-21.709
				c-0.284-10.286-6.323-20.576-20.671-20.576h-13.593V321.551z"/>
		</g>
		<polyline points="577.512,267.563 563.067,286.821 548.149,267.563 		"/>
	</g>
	<g>
		<path fill="#FFFFFF" d="M333.354,267.611l-0.045-1.996c-0.441-7.493-3.751-15.022-8.233-20.971
			c-4.837-6.423-11.93-11.447-18.784-15.515c-14.099-8.365-30.426-12.569-46.809-12.157c-8.559-11.338-23.581-19.032-38.885-19.774
			l-10.524-0.511l7.964,6.898c5.564,4.869,9.769,12.689,9.997,20.08c-15.747,6.486-29.422,17.839-38.922,31.946
			c-10.052,14.932-15.241,32.814-14.841,50.804c0.165,7.41,1.266,14.797,3.293,21.928c0.984,3.461,2.182,6.861,3.585,10.176
			c1.436,3.389,3.299,6.604,4.599,10.047c5.051,13.41,3.625,28.699-4.402,40.656l-2.25,3.354l3.568,1.893
			c4.152,2.203,9.817-1.385,13.096-3.678c2.649-1.854,4.95-4.191,7.754-5.813c1.961-1.131,4.09-2.027,6.279-2.611l2.519-0.545
			l1.333-0.93c1.678-1.17,3.673-1.994,5.587-2.672c4.627-1.643,9.235-1.633,14.045-2.162c4.167-0.461,10.694-1.551,12.933-5.768
			l2.838-5.346h-6.053c-8.477,0-16.715-3.492-22.624-9.566c-6.102-6.271-9.015-14.605-8.903-23.273l0.074-0.002
			c0.315-10.934,5.41-19.047,11.161-24.775c2.307,3.103,6.893,3.245,10.403,2.969c3.581-0.279,7.121-1.135,10.517-2.286
			c6.666-2.259,15.283-6.272,18.052-13.289l0.579-2.081c0.085-0.526,0.12-1.054,0.114-1.585c6.632-0.11,13.29,1.123,19.923,1.359
			c8.441,0.3,16.564-0.355,24.84-1.962c9.519-1.847,22.273-4.564,25.273-15.369c0.293-1.056,0.475-2.141,0.558-3.232
			C333.197,270.45,333.336,269.038,333.354,267.611z M211.903,308.949c2.174-12.98,9.325-26.492,21.651-32.36
			c1.323,3.37-0.408,6.988-2.141,9.857c-2.119,3.508-4.799,6.614-7.109,9.99C219.265,300.096,215.105,304.316,211.903,308.949
			C211.929,308.797,215.105,304.316,211.903,308.949z M231.07,303.101c-0.947,0-1.635-0.085-2.113-0.183
			c1.008-2.578,3.15-4.807,4.788-6.999c1.81-2.423,3.558-4.911,4.953-7.601c1.406-2.712,2.473-5.677,2.595-8.755
			c0.141-3.569-1.223-6.477-3.005-9.47l-1.548-2.6l-2.84,1.048c-11.64,4.299-20.738,14.288-25.345,25.693
			c-4.782,11.839-5.554,24.546-4.368,37.16c-0.169,8.006,1.639,15.793,5.913,22.623c4.182,6.684,10.418,11.996,17.664,15.098
			c-6.416,0.404-11.54,2.291-14.715,3.809l-12.668-24.063l4.981,27.277c-2.267,0.816-4.458,1.863-6.497,3.146
			c-2.407,1.516-4.449,3.498-6.747,5.162c3.423-8.258,4.633-17.346,3.5-26.211c-0.58-4.533-1.721-9.047-3.465-13.275
			c-1.732-4.193-3.947-8.145-5.543-12.402c-6.417-17.133-6.753-36.349-0.927-53.693c7.549-22.475,25.161-40.836,47.291-49.328
			l2.251-0.864l0.083-2.411c0.252-7.461-1.925-14.202-6.003-20.432c10.433,2.636,19.845,8.777,25.348,16.893l1.146,1.691
			l2.041-0.097c15.457-0.737,30.952,3.004,44.314,10.822c6.346,3.711,13.129,8.353,17.478,14.383
			c3.919,5.434,6.911,12.451,6.391,19.266c-8.163,3.103-17.084,3.019-25.639,2.015c-9.375-1.101-18.58-3.276-27.909-4.668
			l-0.853-0.127l-0.819,0.269c-6.751,2.213-12.141,7.727-14.333,14.461l-0.016,0.082c-0.587,1.829-0.981,3.832-1.144,6.008
			l-0.069,0.369c-0.104,1.056-0.14,2.052-0.14,3.037l-0.071,1.272h0.002c-0.382,2.064-2.535,3.714-4.145,4.868
			c-1.963,1.41-4.132,2.535-6.352,3.483C240.354,301.643,235.655,303.101,231.07,303.101z M306.24,283.21
			c-3.546,0.687-7.036,1.397-10.645,1.696c-4.408,0.366-8.845,0.388-13.264,0.225c-6.392-0.236-12.771-1.376-19.16-1.376
			c1.247-4.675,4.624-8.48,9.126-10.27c16.466,2.551,33.428,7.647,50.125,3.959C318.757,280.512,312.539,281.991,306.24,283.21
			C305.175,283.416,312.539,281.991,306.24,283.21z"/>
		<path fill="#FFFFFF" d="M291.774,264.276c2.78,1.445,5.944,2.294,8.984,2.976c3.445,0.773,7.292,1.468,10.798,0.706
			c3.067-0.668,5.49-3.032,5.149-6.359c-0.375-3.659-3.354-6.771-5.841-9.233c-5.105-5.053-12.374-11.13-19.949-7.489
			c-7.63,3.668-7.122,13.875-0.687,18.455C290.721,263.681,291.238,263.997,291.774,264.276
			C294.968,265.936,289.067,262.868,291.774,264.276z M292.741,252.674c1.875-3.603,6.548-0.574,8.657,1.053
			c2.667,2.058,5.442,4.44,7.357,7.242c-3.403,0.064-6.914-0.818-10.142-1.821C296.077,258.358,290.843,256.323,292.741,252.674
			C293.27,251.658,292.225,253.667,292.741,252.674z"/>
	</g>
	<g>
		<g>
			<path fill="#FFFFFF" d="M339.622,260.168c0.102,1.231,0.159,2.508,0.159,3.819c0,4.705-0.703,8.974-1.846,12.184
				c4.067,9.878,6.211,20.5,6.211,31.317c0,45.363-36.905,82.27-82.269,82.27c-11.505,0-22.843-2.434-33.266-7.039
				c-1.584,0.221-3.298,0.496-4.138,0.76c-3.377,1.064-5.651,2.668-6.762,3.58c13.451,7.475,28.677,11.436,44.166,11.436
				c50.181,0,91.005-40.824,91.005-91.006C352.883,290.743,348.295,274.393,339.622,260.168z"/>
		</g>
	</g>
	<g>
		<path fill="#FFFFFF" d="M347.547,310.037h-46.53c-2.413,0-4.368,1.955-4.368,4.367v25.533h-34.646
			c-2.413,0-4.369,1.955-4.369,4.369v47.215c0,2.414,1.956,4.369,4.369,4.369s4.368-1.955,4.368-4.369v-42.848h30.278v33.439
			c0,2.414,1.955,4.369,4.368,4.369s4.368-1.955,4.368-4.369v-63.34h42.162c2.415,0,4.369-1.955,4.369-4.369
			C351.916,311.992,349.962,310.037,347.547,310.037z"/>
	</g>
	<g>
		<path fill="#FFFFFF" d="M273.287,390.254c-0.805,0-1.456-0.652-1.456-1.457v-33.258c0-0.805,0.651-1.455,1.456-1.455
			s1.456,0.65,1.456,1.455v33.258C274.743,389.602,274.092,390.254,273.287,390.254z"/>
	</g>
	<g>
		<path fill="#FFFFFF" d="M290.641,390.254c-0.805,0-1.456-0.652-1.456-1.457v-33.258c0-0.805,0.651-1.455,1.456-1.455
			c0.805,0,1.457,0.65,1.457,1.455v33.258C292.097,389.602,291.446,390.254,290.641,390.254z"/>
	</g>
	<g>
		<path fill="#FFFFFF" d="M282.025,390.254c-0.805,0-1.457-0.652-1.457-1.457v-33.258c0-0.805,0.651-1.455,1.457-1.455
			c0.805,0,1.456,0.65,1.456,1.455v33.258C283.481,389.602,282.83,390.254,282.025,390.254z"/>
	</g>
	<g>
		<path fill="#FFFFFF" d="M313.085,377.635c-0.805,0-1.456-0.65-1.456-1.457v-50.488c0-0.805,0.651-1.455,1.456-1.455
			c0.805,0,1.456,0.65,1.456,1.455v50.488C314.542,376.984,313.89,377.635,313.085,377.635z"/>
	</g>
	<g>
		<path fill="#FFFFFF" d="M333.606,353.355c-0.805,0-1.456-0.65-1.456-1.455v-26.211c0-0.805,0.651-1.455,1.456-1.455
			s1.456,0.65,1.456,1.455V351.9C335.063,352.705,334.411,353.355,333.606,353.355z"/>
	</g>
	<g>
		<path fill="#FFFFFF" d="M323.438,367.674c-0.805,0-1.456-0.65-1.456-1.457v-40.527c0-0.805,0.651-1.455,1.456-1.455
			c0.806,0,1.457,0.65,1.457,1.455v40.527C324.896,367.023,324.244,367.674,323.438,367.674z"/>
	</g>
</g>
</svg>
